<svg width="420" height="51" viewBox="0 0 420 51" fill="none" xmlns="http://www.w3.org/2000/svg">
<path d="M0 12.5909V3.45454H39.3409V12.5909H25.2273V50H14.1364V12.5909H0ZM56.0909 50.6591C52.4394 50.6591 49.2879 49.9394 46.6364 48.5C44 47.0455 41.9697 44.9773 40.5455 42.2955C39.1364 39.5985 38.4318 36.3939 38.4318 32.6818C38.4318 29.0758 39.1439 25.9242 40.5682 23.2273C41.9924 20.5152 44 18.4091 46.5909 16.9091C49.1818 15.3939 52.2348 14.6364 55.75 14.6364C58.2348 14.6364 60.5076 15.0227 62.5682 15.7955C64.6288 16.5682 66.4091 17.7121 67.9091 19.2273C69.4091 20.7424 70.5758 22.6136 71.4091 24.8409C72.2424 27.053 72.6591 29.5909 72.6591 32.4545V35.2273H42.3182V28.7727H62.3182C62.303 27.5909 62.0227 26.5379 61.4773 25.6136C60.9318 24.6894 60.1818 23.9697 59.2273 23.4545C58.2879 22.9242 57.2045 22.6591 55.9773 22.6591C54.7348 22.6591 53.6212 22.9394 52.6364 23.5C51.6515 24.0455 50.8712 24.7955 50.2955 25.75C49.7197 26.6894 49.4167 27.7576 49.3864 28.9545V35.5227C49.3864 36.947 49.6667 38.197 50.2273 39.2727C50.7879 40.3333 51.5833 41.1591 52.6136 41.75C53.6439 42.3409 54.8712 42.6364 56.2955 42.6364C57.2803 42.6364 58.1742 42.5 58.9773 42.2273C59.7803 41.9545 60.4697 41.553 61.0455 41.0227C61.6212 40.4924 62.053 39.8409 62.3409 39.0682L72.5455 39.3636C72.1212 41.6515 71.1894 43.6439 69.75 45.3409C68.3258 47.0227 66.4545 48.3333 64.1364 49.2727C61.8182 50.197 59.1364 50.6591 56.0909 50.6591ZM89.4489 3.45454V50H78.3352V3.45454H89.4489ZM112.841 50.6591C109.189 50.6591 106.038 49.9394 103.386 48.5C100.75 47.0455 98.7197 44.9773 97.2955 42.2955C95.8864 39.5985 95.1818 36.3939 95.1818 32.6818C95.1818 29.0758 95.8939 25.9242 97.3182 23.2273C98.7424 20.5152 100.75 18.4091 103.341 16.9091C105.932 15.3939 108.985 14.6364 112.5 14.6364C114.985 14.6364 117.258 15.0227 119.318 15.7955C121.379 16.5682 123.159 17.7121 124.659 19.2273C126.159 20.7424 127.326 22.6136 128.159 24.8409C128.992 27.053 129.409 29.5909 129.409 32.4545V35.2273H99.0682V28.7727H119.068C119.053 27.5909 118.773 26.5379 118.227 25.6136C117.682 24.6894 116.932 23.9697 115.977 23.4545C115.038 22.9242 113.955 22.6591 112.727 22.6591C111.485 22.6591 110.371 22.9394 109.386 23.5C108.402 24.0455 107.621 24.7955 107.045 25.75C106.47 26.6894 106.167 27.7576 106.136 28.9545V35.5227C106.136 36.947 106.417 38.197 106.977 39.2727C107.538 40.3333 108.333 41.1591 109.364 41.75C110.394 42.3409 111.621 42.6364 113.045 42.6364C114.03 42.6364 114.924 42.5 115.727 42.2273C116.53 41.9545 117.22 41.553 117.795 41.0227C118.371 40.4924 118.803 39.8409 119.091 39.0682L129.295 39.3636C128.871 41.6515 127.939 43.6439 126.5 45.3409C125.076 47.0227 123.205 48.3333 120.886 49.2727C118.568 50.197 115.886 50.6591 112.841 50.6591Z" fill="#6B4CAA"/>
<path d="M135.085 50V15.0909H145.653V21.5H146.04C146.767 19.3788 147.994 17.7045 149.722 16.4773C151.449 15.25 153.509 14.6364 155.903 14.6364C158.328 14.6364 160.403 15.2576 162.131 16.5C163.858 17.7424 164.956 19.4091 165.426 21.5H165.79C166.441 19.4242 167.714 17.7652 169.608 16.5227C171.502 15.2652 173.737 14.6364 176.312 14.6364C179.616 14.6364 182.297 15.697 184.358 17.8182C186.419 19.9242 187.449 22.8182 187.449 26.5V50H176.335V29.0455C176.335 27.303 175.888 25.9773 174.994 25.0682C174.1 24.1439 172.941 23.6818 171.517 23.6818C169.987 23.6818 168.782 24.1818 167.903 25.1818C167.04 26.1667 166.608 27.4924 166.608 29.1591V50H155.926V28.9318C155.926 27.3106 155.487 26.0303 154.608 25.0909C153.729 24.1515 152.57 23.6818 151.131 23.6818C150.161 23.6818 149.305 23.9167 148.562 24.3864C147.82 24.8409 147.237 25.4924 146.812 26.3409C146.403 27.1894 146.199 28.1894 146.199 29.3409V50H135.085ZM210.653 50.6591C207.002 50.6591 203.85 49.9394 201.199 48.5C198.563 47.0455 196.532 44.9773 195.108 42.2955C193.699 39.5985 192.994 36.3939 192.994 32.6818C192.994 29.0758 193.706 25.9242 195.131 23.2273C196.555 20.5152 198.562 18.4091 201.153 16.9091C203.744 15.3939 206.797 14.6364 210.312 14.6364C212.797 14.6364 215.07 15.0227 217.131 15.7955C219.191 16.5682 220.972 17.7121 222.472 19.2273C223.972 20.7424 225.138 22.6136 225.972 24.8409C226.805 27.053 227.222 29.5909 227.222 32.4545V35.2273H196.881V28.7727H216.881C216.866 27.5909 216.585 26.5379 216.04 25.6136C215.494 24.6894 214.744 23.9697 213.79 23.4545C212.85 22.9242 211.767 22.6591 210.54 22.6591C209.297 22.6591 208.184 22.9394 207.199 23.5C206.214 24.0455 205.434 24.7955 204.858 25.75C204.282 26.6894 203.979 27.7576 203.949 28.9545V35.5227C203.949 36.947 204.229 38.197 204.79 39.2727C205.35 40.3333 206.146 41.1591 207.176 41.75C208.206 42.3409 209.434 42.6364 210.858 42.6364C211.843 42.6364 212.737 42.5 213.54 42.2273C214.343 41.9545 215.032 41.553 215.608 41.0227C216.184 40.4924 216.616 39.8409 216.903 39.0682L227.108 39.3636C226.684 41.6515 225.752 43.6439 224.312 45.3409C222.888 47.0227 221.017 48.3333 218.699 49.2727C216.381 50.197 213.699 50.6591 210.653 50.6591ZM245.648 50.5C243.072 50.5 240.731 49.8333 238.625 48.5C236.519 47.1667 234.837 45.1667 233.58 42.5C232.322 39.8333 231.693 36.5227 231.693 32.5682C231.693 28.4621 232.345 25.0833 233.648 22.4318C234.951 19.7803 236.655 17.8182 238.761 16.5455C240.883 15.2727 243.163 14.6364 245.602 14.6364C247.436 14.6364 249.004 14.9545 250.307 15.5909C251.61 16.2121 252.686 17.0152 253.534 18C254.383 18.9848 255.027 20.0076 255.466 21.0682H255.693V3.45454H266.807V50H255.807V44.3409H255.466C254.996 45.4167 254.33 46.4242 253.466 47.3636C252.602 48.303 251.519 49.0606 250.216 49.6364C248.928 50.2121 247.405 50.5 245.648 50.5ZM249.511 41.8409C250.86 41.8409 252.011 41.4621 252.966 40.7045C253.92 39.9318 254.655 38.8485 255.17 37.4545C255.686 36.0606 255.943 34.4242 255.943 32.5455C255.943 30.6364 255.686 28.9924 255.17 27.6136C254.67 26.2348 253.936 25.1742 252.966 24.4318C252.011 23.6894 250.86 23.3182 249.511 23.3182C248.133 23.3182 246.966 23.697 246.011 24.4545C245.057 25.2121 244.33 26.2803 243.83 27.6591C243.345 29.0379 243.102 30.6667 243.102 32.5455C243.102 34.4242 243.352 36.0606 243.852 37.4545C244.352 38.8485 245.072 39.9318 246.011 40.7045C246.966 41.4621 248.133 41.8409 249.511 41.8409ZM273.835 50V15.0909H284.949V50H273.835ZM279.403 11.0227C277.843 11.0227 276.502 10.5076 275.381 9.47727C274.259 8.43182 273.699 7.17424 273.699 5.70454C273.699 4.25 274.259 3.00757 275.381 1.97727C276.502 0.931816 277.843 0.409088 279.403 0.409088C280.979 0.409088 282.32 0.931816 283.426 1.97727C284.547 3.00757 285.108 4.25 285.108 5.70454C285.108 7.17424 284.547 8.43182 283.426 9.47727C282.32 10.5076 280.979 11.0227 279.403 11.0227ZM308.318 50.6591C304.636 50.6591 301.477 49.9015 298.841 48.3864C296.22 46.8712 294.205 44.7652 292.795 42.0682C291.386 39.3561 290.682 36.2197 290.682 32.6591C290.682 29.0833 291.386 25.947 292.795 23.25C294.22 20.5379 296.242 18.4242 298.864 16.9091C301.5 15.3939 304.644 14.6364 308.295 14.6364C311.523 14.6364 314.333 15.2197 316.727 16.3864C319.136 17.553 321.015 19.2045 322.364 21.3409C323.727 23.4621 324.447 25.9545 324.523 28.8182H314.136C313.924 27.0303 313.318 25.6288 312.318 24.6136C311.333 23.5985 310.045 23.0909 308.455 23.0909C307.167 23.0909 306.038 23.4545 305.068 24.1818C304.098 24.8939 303.341 25.9545 302.795 27.3636C302.265 28.7576 302 30.4848 302 32.5455C302 34.6061 302.265 36.3485 302.795 37.7727C303.341 39.1818 304.098 40.25 305.068 40.9773C306.038 41.6894 307.167 42.0455 308.455 42.0455C309.485 42.0455 310.394 41.8258 311.182 41.3864C311.985 40.947 312.644 40.303 313.159 39.4545C313.674 38.5909 314 37.5455 314.136 36.3182H324.523C324.417 39.197 323.697 41.7121 322.364 43.8636C321.045 46.0152 319.189 47.6894 316.795 48.8864C314.417 50.0682 311.591 50.6591 308.318 50.6591ZM330.21 50V15.0909H341.324V50H330.21ZM335.778 11.0227C334.218 11.0227 332.877 10.5076 331.756 9.47727C330.634 8.43182 330.074 7.17424 330.074 5.70454C330.074 4.25 330.634 3.00757 331.756 1.97727C332.877 0.931816 334.218 0.409088 335.778 0.409088C337.354 0.409088 338.695 0.931816 339.801 1.97727C340.922 3.00757 341.483 4.25 341.483 5.70454C341.483 7.17424 340.922 8.43182 339.801 9.47727C338.695 10.5076 337.354 11.0227 335.778 11.0227ZM359.511 30.0909V50H348.398V15.0909H358.966V21.5H359.352C360.125 19.3636 361.443 17.6894 363.307 16.4773C365.17 15.25 367.39 14.6364 369.966 14.6364C372.42 14.6364 374.549 15.1894 376.352 16.2955C378.17 17.3864 379.58 18.9167 380.58 20.8864C381.595 22.8409 382.095 25.1288 382.08 27.75V50H370.966V29.9318C370.981 27.9924 370.489 26.4773 369.489 25.3864C368.504 24.2955 367.133 23.75 365.375 23.75C364.208 23.75 363.178 24.0076 362.284 24.5227C361.405 25.0227 360.723 25.7424 360.239 26.6818C359.769 27.6212 359.527 28.7576 359.511 30.0909ZM398.801 50.5909C396.574 50.5909 394.597 50.2197 392.869 49.4773C391.157 48.7197 389.801 47.5833 388.801 46.0682C387.816 44.5379 387.324 42.6212 387.324 40.3182C387.324 38.3788 387.665 36.7424 388.347 35.4091C389.028 34.0758 389.968 32.9924 391.165 32.1591C392.362 31.3258 393.741 30.697 395.301 30.2727C396.862 29.8333 398.528 29.5379 400.301 29.3864C402.286 29.2045 403.884 29.0152 405.097 28.8182C406.309 28.6061 407.188 28.3106 407.733 27.9318C408.294 27.5379 408.574 26.9848 408.574 26.2727V26.1591C408.574 24.9924 408.172 24.0909 407.369 23.4545C406.566 22.8182 405.483 22.5 404.119 22.5C402.65 22.5 401.468 22.8182 400.574 23.4545C399.68 24.0909 399.112 24.9697 398.869 26.0909L388.619 25.7273C388.922 23.6061 389.703 21.7121 390.96 20.0455C392.233 18.3636 393.975 17.0455 396.188 16.0909C398.415 15.1212 401.089 14.6364 404.21 14.6364C406.438 14.6364 408.491 14.9015 410.369 15.4318C412.248 15.947 413.884 16.7045 415.278 17.7045C416.672 18.6894 417.748 19.9015 418.506 21.3409C419.278 22.7803 419.665 24.4242 419.665 26.2727V50H409.21V45.1364H408.938C408.316 46.3182 407.521 47.3182 406.551 48.1364C405.597 48.9545 404.468 49.5682 403.165 49.9773C401.877 50.3864 400.422 50.5909 398.801 50.5909ZM402.233 43.3182C403.43 43.3182 404.506 43.0758 405.46 42.5909C406.43 42.1061 407.203 41.4394 407.778 40.5909C408.354 39.7273 408.642 38.7273 408.642 37.5909V34.2727C408.324 34.4394 407.938 34.5909 407.483 34.7273C407.044 34.8636 406.559 34.9924 406.028 35.1136C405.498 35.2348 404.953 35.3409 404.392 35.4318C403.831 35.5227 403.294 35.6061 402.778 35.6818C401.733 35.8485 400.839 36.1061 400.097 36.4545C399.369 36.803 398.809 37.2576 398.415 37.8182C398.036 38.3636 397.847 39.0152 397.847 39.7727C397.847 40.9242 398.256 41.803 399.074 42.4091C399.907 43.0152 400.96 43.3182 402.233 43.3182Z" fill="white"/>
</svg>
