<svg width="30" height="23" viewBox="0 0 30 23" fill="none" xmlns="http://www.w3.org/2000/svg">
<path d="M10.5 11.5C13.395 11.5 15.75 8.92071 15.75 5.75C15.75 2.57929 13.395 0 10.5 0C7.605 0 5.25 2.57929 5.25 5.75C5.25 8.92071 7.605 11.5 10.5 11.5ZM10.5 3.28571C11.745 3.28571 12.75 4.38643 12.75 5.75C12.75 7.11357 11.745 8.21429 10.5 8.21429C9.255 8.21429 8.25 7.11357 8.25 5.75C8.25 4.38643 9.255 3.28571 10.5 3.28571ZM10.575 19.7143H4.155C5.64 18.8929 8.205 18.0714 10.5 18.0714C10.665 18.0714 10.845 18.0879 11.01 18.0879C11.52 16.8886 12.405 15.9029 13.47 15.1143C12.375 14.9007 11.34 14.7857 10.5 14.7857C6.99 14.7857 0 16.7079 0 20.5357V23H10.5V20.5357C10.5 20.2564 10.53 19.9771 10.575 19.7143ZM21.75 15.6071C18.99 15.6071 13.5 17.2664 13.5 20.5357V23H30V20.5357C30 17.2664 24.51 15.6071 21.75 15.6071ZM23.565 12.6171C24.705 11.9107 25.5 10.58 25.5 9.03571C25.5 7.94643 25.1049 6.90176 24.4016 6.13153C23.6984 5.36129 22.7446 4.92857 21.75 4.92857C20.7554 4.92857 19.8016 5.36129 19.0984 6.13153C18.3951 6.90176 18 7.94643 18 9.03571C18 10.58 18.795 11.9107 19.935 12.6171C20.475 12.9457 21.09 13.1429 21.75 13.1429C22.41 13.1429 23.025 12.9457 23.565 12.6171Z" fill="white"/>
</svg>
