<svg width="30" height="30" viewBox="0 0 30 30" fill="none" xmlns="http://www.w3.org/2000/svg">
<path d="M26.8087 25.0929L29.8931 19.9071C30.0913 19.5857 30.0032 19.1786 29.7168 18.9429L26.4562 16.4571C26.5223 15.9857 26.5664 15.4929 26.5664 15C26.5664 14.5071 26.5223 14.0143 26.4562 13.5214L29.7168 11.0357C30.0032 10.8 30.0913 10.3929 29.8931 10.0714L26.8087 4.88571C26.6104 4.56429 26.2139 4.43571 25.8614 4.56429L22.0279 6.06429C21.2348 5.46429 20.3756 4.97143 19.4283 4.58571L18.8555 0.621428C18.8185 0.448119 18.722 0.292191 18.5819 0.179262C18.4418 0.0663326 18.2663 0.00311714 18.0844 0H11.9156C11.5411 0 11.2106 0.278571 11.1445 0.642857L10.5717 4.60714C9.64643 4.99286 8.76518 5.48571 7.97206 6.08571L4.13864 4.58571C3.78614 4.45714 3.38958 4.58571 3.1913 4.90714L0.106936 10.0929C-0.0913445 10.4143 -0.00321954 10.8214 0.283186 11.0571L3.5438 13.5429C3.4777 14.0143 3.43364 14.5071 3.43364 15C3.43364 15.4929 3.4777 15.9857 3.5438 16.4786L0.283186 18.9643C-0.00321954 19.2 -0.0913445 19.6071 0.106936 19.9286L3.1913 25.1143C3.38958 25.4357 3.78614 25.5643 4.13864 25.4357L7.97206 23.9357C8.76518 24.5357 9.6244 25.0286 10.5717 25.4143L11.1445 29.3786C11.2106 29.7214 11.5411 30 11.9156 30H18.0844C18.4589 30 18.7894 29.7214 18.8555 29.3571L19.4283 25.3929C20.3536 25.0071 21.2348 24.5143 22.0279 23.9143L25.8614 25.4143C26.2139 25.5429 26.6104 25.4143 26.8087 25.0929ZM15 19.2857C12.5766 19.2857 10.5938 17.3571 10.5938 15C10.5938 12.6429 12.5766 10.7143 15 10.7143C17.4234 10.7143 19.4062 12.6429 19.4062 15C19.4062 17.3571 17.4234 19.2857 15 19.2857Z" fill="white"/>
</svg>
