<svg width="84" height="80" viewBox="0 0 84 80" fill="none" xmlns="http://www.w3.org/2000/svg">
<path d="M41.6667 79.9381C35.9028 79.9381 30.4861 78.8889 25.4167 76.7905C20.3472 74.6922 15.9375 71.8444 12.1875 68.2472C8.4375 64.6499 5.46875 60.4199 3.28125 55.557C1.09375 50.6941 0 45.4981 0 39.9691C0 34.44 1.09375 29.244 3.28125 24.3811C5.46875 19.5182 8.4375 15.2882 12.1875 11.6909C15.9375 8.09373 20.3472 5.24594 25.4167 3.14756C30.4861 1.04919 35.9028 0 41.6667 0C46.1805 0 50.4514 0.632843 54.4792 1.89853C58.5069 3.16422 62.2222 4.92952 65.625 7.19443L59.5833 13.0899C56.9444 11.4911 54.1319 10.2421 51.1458 9.34277C48.1597 8.44346 45 7.99381 41.6667 7.99381C32.4306 7.99381 24.566 11.1081 18.0729 17.3366C11.5799 23.5651 8.33333 31.1092 8.33333 39.9691C8.33333 48.8289 11.5799 56.373 18.0729 62.6015C24.566 68.83 32.4306 71.9443 41.6667 71.9443C50.9028 71.9443 58.7674 68.83 65.2604 62.6015C71.7535 56.373 75 48.8289 75 39.9691C75 38.77 74.9305 37.5709 74.7917 36.3718C74.6528 35.1728 74.4444 34.007 74.1667 32.8745L80.9375 26.3796C81.7014 28.5113 82.2917 30.7096 82.7083 32.9745C83.125 35.2394 83.3333 37.5709 83.3333 39.9691C83.3333 45.4981 82.2396 50.6941 80.0521 55.557C77.8646 60.4199 74.8958 64.6499 71.1458 68.2472C67.3958 71.8444 62.9861 74.6922 57.9167 76.7905C52.8472 78.8889 47.4305 79.9381 41.6667 79.9381ZM35.8333 58.3548L18.125 41.368L23.9583 35.7723L35.8333 47.1635L77.5 7.09451L83.3333 12.6902L35.8333 58.3548Z" fill="white"/>
</svg>
