<svg width="80" height="88" viewBox="0 0 80 88" fill="none" xmlns="http://www.w3.org/2000/svg">
<path d="M58.3333 67.9474C60.0694 67.9474 61.5451 67.3645 62.7604 66.1988C63.9757 65.033 64.5833 63.6174 64.5833 61.952C64.5833 60.2867 63.9757 58.8711 62.7604 57.7053C61.5451 56.5396 60.0694 55.9567 58.3333 55.9567C56.5972 55.9567 55.1215 56.5396 53.9062 57.7053C52.691 58.8711 52.0833 60.2867 52.0833 61.952C52.0833 63.6174 52.691 65.033 53.9062 66.1988C55.1215 67.3645 56.5972 67.9474 58.3333 67.9474ZM58.3333 79.9381C60.4167 79.9381 62.3611 79.4718 64.1667 78.5392C65.9722 77.6066 67.4653 76.3076 68.6458 74.6422C67.0486 73.7096 65.3819 73.0268 63.6458 72.5938C61.9097 72.1608 60.1389 71.9443 58.3333 71.9443C56.5278 71.9443 54.7569 72.1608 53.0208 72.5938C51.2847 73.0268 49.6181 73.7096 48.0208 74.6422C49.2014 76.3076 50.6944 77.6066 52.5 78.5392C54.3056 79.4718 56.25 79.9381 58.3333 79.9381ZM20.8333 27.9783H45.8333V19.9845C45.8333 16.6538 44.6181 13.8226 42.1875 11.4911C39.7569 9.15958 36.8056 7.99381 33.3333 7.99381C29.8611 7.99381 26.9097 9.15958 24.4792 11.4911C22.0486 13.8226 20.8333 16.6538 20.8333 19.9845V27.9783ZM34.375 83.935H8.33333C6.04167 83.935 4.07986 83.1523 2.44792 81.5868C0.815972 80.0214 0 78.1395 0 75.9412V35.9722C0 33.7739 0.815972 31.892 2.44792 30.3265C4.07986 28.7611 6.04167 27.9783 8.33333 27.9783H12.5V19.9845C12.5 14.4555 14.5312 9.74246 18.5938 5.84547C22.6562 1.94849 27.5694 0 33.3333 0C39.0972 0 44.0104 1.94849 48.0729 5.84547C52.1354 9.74246 54.1667 14.4555 54.1667 19.9845V27.9783H58.3333C60.625 27.9783 62.5868 28.7611 64.2188 30.3265C65.8507 31.892 66.6667 33.7739 66.6667 35.9722V41.1681C65.4167 40.7684 64.1146 40.4687 62.7604 40.2688C61.4062 40.069 59.9306 39.9691 58.3333 39.9691V35.9722H8.33333V75.9412H30.4167C30.9722 77.54 31.5278 78.9222 32.0833 80.088C32.6389 81.2538 33.4028 82.5361 34.375 83.935ZM58.3333 87.9319C52.5694 87.9319 47.6562 85.9834 43.5938 82.0864C39.5312 78.1895 37.5 73.4764 37.5 67.9474C37.5 62.4183 39.5312 57.7053 43.5938 53.8083C47.6562 49.9114 52.5694 47.9629 58.3333 47.9629C64.0972 47.9629 69.0104 49.9114 73.0729 53.8083C77.1354 57.7053 79.1667 62.4183 79.1667 67.9474C79.1667 73.4764 77.1354 78.1895 73.0729 82.0864C69.0104 85.9834 64.0972 87.9319 58.3333 87.9319Z" fill="white"/>
</svg>
