<?xml version="1.0" encoding="iso-8859-1"?>
<!-- Uploaded to: SVG Repo, www.svgrepo.com, Generator: SVG Repo Mixer Tools -->
<!DOCTYPE svg PUBLIC "-//W3C//DTD SVG 1.1//EN" "http://www.w3.org/Graphics/SVG/1.1/DTD/svg11.dtd">
<svg fill="#000000" version="1.1" id="Capa_1" xmlns="http://www.w3.org/2000/svg" xmlns:xlink="http://www.w3.org/1999/xlink" 
	 width="800px" height="800px" viewBox="0 0 562.269 562.269"
	 xml:space="preserve">
<g>
	<g>
		<path d="M498.661,239.348h-3.504c-0.952,0-1.722,0.77-1.722,1.722c0,0,0,60.788,0,126.081c3.657-4.834,7.195-9.721,10.609-14.654
			c-2.271-2.831-3.639-6.422-3.639-10.333c-0.005-0.004-0.023-101.094-0.023-101.094
			C500.382,240.118,499.613,239.348,498.661,239.348z"/>
		<path d="M445.527,356.097c-1.2,0-1.765,0.506-1.765,1.726c0,0,0,30.103,0,64.733c2.348-2.219,4.672-4.466,6.972-6.737
			c0-31.704,0-57.996,0-57.996c0-1.215-0.564-1.726-1.765-1.726H445.527L445.527,356.097z"/>
		<path d="M27.607,300.18c0-32.541,0-72.254,0-73.048c0-22.658,17.428-40.086,39.216-40.086c0.555,0,50.542,0,50.542,0
			c13.732,0,43.017,0,43.572,0c21.783,0,39.216,17.428,39.216,40.086c0,1.353,0,114.975,0,115.027
			c0,9.142-7.411,16.557-16.558,16.557c-9.142,0-16.548-7.405-16.558-16.543c-0.005-0.005-0.024-101.094-0.024-101.094
			c0-0.952-0.77-1.722-1.721-1.722h-3.504c-0.952,0-1.722,0.77-1.722,1.722c0,0,0,132.368,0,216.255
			c28.435,20.909,59.015,37.882,90.318,49.209c0-22.142,0.005-53.67,0.005-53.67c0-0.626-0.459-1.138-1.085-1.138h-21.845
			c-1.1,0-1.272-1.052-1.1-1.654l31.475-103.552c0.167-0.603-0.201-1.139-0.827-1.129c0,0-4.867,0-4.963,0
			c-1.104,0-1.573,0.903-1.668,1.119c0,0-15.659,51.136-15.668,51.136c-1.711,5.574-7.616,8.701-13.191,6.994
			c-5.58-1.711-8.711-7.621-7-13.196c0.005-0.019,15.773-51.503,15.826-51.685c2.415-8.387,11.107-27.487,27.703-27.487h45.37
			c17.815,0,24.982,19.096,27.392,27.487c0.053,0.177,0.11,0.396,0.178,0.65c6.368,20.77,15.644,51.011,15.648,51.034
			c1.712,5.58-1.425,11.485-6.999,13.196c-5.575,1.707-11.48-1.42-13.192-6.994c-0.004,0-15.716-51.136-15.716-51.136
			c-0.091-0.22-0.563-1.119-1.668-1.119c-0.101,0-4.763,0-4.763,0c-0.626-0.01-0.923,0.526-0.76,1.129l31.527,103.552
			c0.172,0.603,0,1.654-1.1,1.654h-20.999c-0.627,0-1.086,0.507-1.086,1.138c0,0,0,31.533,0.005,53.675
			c30.892-11.174,61.081-27.851,89.199-48.382c0-83.839,0-217.087,0-217.087c0-0.952-0.77-1.722-1.722-1.722h-3.504
			c-0.952,0-1.722,0.77-1.722,1.722c0,0-0.015,101.089-0.024,101.094c-0.004,9.138-7.415,16.543-16.557,16.543
			c-9.143,0-16.558-7.41-16.558-16.557c0-0.053,0-113.67,0-115.027c0-22.658,17.428-40.086,39.211-40.086c0.555,0,50.543,0,50.543,0
			c13.731,0,43.017,0,43.571,0c21.783,0,39.211,17.428,39.211,40.086c0,0.817,0,42.434,0,75.371
			c38.9-79.44,42.653-163.212-15.897-218.962c-102.721-94.157-219.426,19.341-234.425,34.779c-0.909,0.913-1.817,1.673-2.081,1.688
			c-0.263-0.015-1.171-0.774-2.065-1.692C264.063,102.877,147.354-10.621,44.638,83.542
			C-13.34,138.746-10.232,221.433,27.607,300.18z M447.249,113.946c17.547,0,31.771,14.224,31.771,31.771
			c0,17.547-14.225,31.771-31.771,31.771c-17.548,0-31.771-14.225-31.771-31.771C415.477,128.169,429.701,113.946,447.249,113.946z
			 M250.748,264.335c4.403-0.44,8.96,1.707,12.345,3.882c0.875,0.564,2.137,0.44,2.917-0.243c3.935-3.467,9.104-5.58,14.764-5.58
			c5.887,0,11.241,2.275,15.233,5.996c0.761,0.707,1.994,0.831,2.859,0.248c3.434-2.31,8.31-4.776,12.996-4.312
			c7.726,0.77,9.385,9.653,7.377,15.783c-0.325,0.994-1.085,2.5-1.535,3.433c-2.744,5.704-5.551,12.249-7.329,12.455
			c-1.793,0.225,3.935-13.521-0.177-17.806c-0.727-0.75-2.425-1.109-3.462-1.022c-0.751,0.066-1.692,0.225-2.759,0.583
			c-0.985,0.335-1.492,1.534-1.281,2.548c0.291,1.444,0.449,2.936,0.449,4.461c0,12.346-10.012,22.357-22.357,22.357
			c-12.345,0-22.362-10.012-22.362-22.357c0-1.683,0.182-3.317,0.531-4.891c0.225-1.019-0.292-2.151-1.301-2.4
			c-0.665-0.158-1.267-0.249-1.783-0.292c-1.042-0.091-2.745,0.277-3.462,1.023c-4.112,4.284,1.611,18.03-0.177,17.806
			c-1.793-0.216-4.6-6.761-7.344-12.465c-0.449-0.942-1.209-2.443-1.535-3.438C241.362,273.994,243.021,265.105,250.748,264.335z
			 M113.88,113.946c17.547,0,31.771,14.224,31.771,31.771c0,17.547-14.225,31.771-31.771,31.771
			c-17.547,0-31.771-14.225-31.771-31.771C82.108,128.169,96.333,113.946,113.88,113.946z"/>
		<path d="M112.159,356.097c-1.2,0-1.765,0.506-1.765,1.726c0,0,0,25.671,0,56.878c2.3,2.285,4.624,4.547,6.971,6.784
			c0-34.181,0-63.662,0-63.662c0-1.215-0.564-1.727-1.764-1.727L112.159,356.097L112.159,356.097z"/>
		<path d="M283.466,451.726c-0.498,0-4.7,0-4.7,0c-0.626,0-1.133,0.507-1.133,1.134l-0.005,62.018
			c1.133,0.286,2.271,0.568,3.409,0.837h0.196c1.133-0.269,2.263-0.55,3.396-0.832l-0.01-62.018
			C284.619,452.233,283.963,451.726,283.466,451.726z"/>
		<path d="M62.467,239.348c-0.951,0-1.721,0.77-1.721,1.722c0,0-0.014,101.09-0.024,101.095c0,3.557-1.138,6.847-3.05,9.543
			c3.232,4.695,6.574,9.348,10.021,13.952c0-64.725,0-124.59,0-124.59c0-0.952-0.77-1.722-1.721-1.722H62.467L62.467,239.348z"/>
	</g>
</g>
</svg>