<svg width="80" height="50" viewBox="0 0 80 50" fill="none" xmlns="http://www.w3.org/2000/svg">
<path d="M28 25C35.72 25 42 19.3929 42 12.5C42 5.60714 35.72 0 28 0C20.28 0 14 5.60714 14 12.5C14 19.3929 20.28 25 28 25ZM28 7.14286C31.32 7.14286 34 9.53571 34 12.5C34 15.4643 31.32 17.8571 28 17.8571C24.68 17.8571 22 15.4643 22 12.5C22 9.53571 24.68 7.14286 28 7.14286ZM28.2 42.8571H11.08C15.04 41.0714 21.88 39.2857 28 39.2857C28.44 39.2857 28.92 39.3214 29.36 39.3214C30.72 36.7143 33.08 34.5714 35.92 32.8571C33 32.3929 30.24 32.1429 28 32.1429C18.64 32.1429 0 36.3214 0 44.6429V50H28V44.6429C28 44.0357 28.08 43.4286 28.2 42.8571ZM58 33.9286C50.64 33.9286 36 37.5357 36 44.6429V50H80V44.6429C80 37.5357 65.36 33.9286 58 33.9286ZM62.84 27.4286C65.88 25.8929 68 23 68 19.6429C68 17.2749 66.9464 15.0038 65.0711 13.3294C63.1957 11.655 60.6522 10.7143 58 10.7143C55.3478 10.7143 52.8043 11.655 50.9289 13.3294C49.0536 15.0038 48 17.2749 48 19.6429C48 23 50.12 25.8929 53.16 27.4286C54.6 28.1429 56.24 28.5714 58 28.5714C59.76 28.5714 61.4 28.1429 62.84 27.4286Z" fill="#604499"/>
</svg>
