<svg width="70" height="70" viewBox="0 0 70 70" fill="none" xmlns="http://www.w3.org/2000/svg">
<path d="M62.2222 7H58.3333V3.5C58.3333 1.575 56.5833 0 54.4444 0C52.3056 0 50.5556 1.575 50.5556 3.5V7H19.4444V3.5C19.4444 1.575 17.6944 0 15.5556 0C13.4167 0 11.6667 1.575 11.6667 3.5V7H7.77778C3.46111 7 0.0388889 10.15 0.0388889 14L0 63C0 64.8565 0.819442 66.637 2.27806 67.9497C3.73667 69.2625 5.71498 70 7.77778 70H62.2222C66.5 70 70 66.85 70 63V14C70 10.15 66.5 7 62.2222 7ZM62.2222 59.5C62.2222 61.425 60.4722 63 58.3333 63H11.6667C9.52778 63 7.77778 61.425 7.77778 59.5V24.5H62.2222V59.5ZM15.5556 31.5H23.3333V38.5H15.5556V31.5ZM31.1111 31.5H38.8889V38.5H31.1111V31.5ZM46.6667 31.5H54.4444V38.5H46.6667V31.5Z" fill="white"/>
</svg>
