<svg width="150" height="30" viewBox="0 0 150 30" fill="none" xmlns="http://www.w3.org/2000/svg">
<path d="M12.0588 0.852223C12.531 -0.284073 13.8953 -0.284075 14.3674 0.852221L17.4533 8.27846C17.6408 8.72969 18.0032 9.04244 18.4225 9.1148L25.3227 10.3056C26.3785 10.4879 26.8001 12.0289 26.0361 12.9134L21.0431 18.6939C20.7397 19.0451 20.6013 19.5512 20.6729 20.0471L21.8516 28.2093C22.0319 29.4582 20.9282 30.4106 19.9839 29.821L13.8121 25.9673C13.4371 25.7332 12.9891 25.7332 12.6141 25.9673L6.44239 29.821C5.49804 30.4106 4.39433 29.4582 4.57468 28.2093L5.75338 20.0471C5.825 19.5512 5.68656 19.0451 5.38318 18.6939L0.390134 12.9134C-0.373856 12.0289 0.0477218 10.4879 1.10353 10.3056L8.00375 9.1148C8.42302 9.04244 8.78546 8.72969 8.97296 8.27846L12.0588 0.852223ZM42.9523 0.852223C43.4244 -0.284073 44.7887 -0.284075 45.2609 0.852221L48.3467 8.27846C48.5342 8.72969 48.8967 9.04244 49.3159 9.1148L56.2162 10.3056C57.272 10.4879 57.6936 12.0289 56.9296 12.9134L51.9365 18.6939C51.6331 19.0451 51.4947 19.5512 51.5663 20.0471L52.745 28.2093C52.9254 29.4582 51.8217 30.4106 50.8773 29.821L44.7056 25.9673C44.3306 25.7332 43.8826 25.7332 43.5076 25.9673L37.3358 29.821C36.3915 30.4106 35.2878 29.4582 35.4681 28.2093L36.6468 20.0471C36.7184 19.5512 36.58 19.0451 36.2766 18.6939L31.2836 12.9134C30.5196 12.0289 30.9412 10.4879 31.997 10.3056L38.8972 9.1148C39.3165 9.04244 39.6789 8.72969 39.8664 8.27846L42.9523 0.852223ZM73.8457 0.852223C74.3179 -0.284073 75.6821 -0.284075 76.1543 0.852221L79.2402 8.27846C79.4277 8.72969 79.7901 9.04244 80.2094 9.1148L87.1096 10.3056C88.1654 10.4879 88.587 12.0289 87.823 12.9134L82.83 18.6939C82.5266 19.0451 82.3881 19.5512 82.4598 20.0471L83.6385 28.2093C83.8188 29.4582 82.7151 30.4106 81.7707 29.821L75.599 25.9673C75.224 25.7332 74.776 25.7332 74.401 25.9673L68.2293 29.821C67.2849 30.4106 66.1812 29.4582 66.3616 28.2093L67.5403 20.0471C67.6119 19.5512 67.4734 19.0451 67.1701 18.6939L62.177 12.9134C61.413 12.0289 61.8346 10.4879 62.8904 10.3056L69.7906 9.1148C70.2099 9.04244 70.5723 8.72969 70.7598 8.27846L73.8457 0.852223ZM104.739 0.852223C105.211 -0.284073 106.576 -0.284075 107.048 0.852221L110.134 8.27846C110.321 8.72969 110.684 9.04244 111.103 9.1148L118.003 10.3056C119.059 10.4879 119.48 12.0289 118.716 12.9134L113.723 18.6939C113.42 19.0451 113.282 19.5512 113.353 20.0471L114.532 28.2093C114.712 29.4582 113.609 30.4106 112.664 29.821L106.492 25.9673C106.117 25.7332 105.669 25.7332 105.294 25.9673L99.1227 29.821C98.1783 30.4106 97.0746 29.4582 97.255 28.2093L98.4337 20.0471C98.5053 19.5512 98.3669 19.0451 98.0635 18.6939L93.0704 12.9134C92.3064 12.0289 92.728 10.4879 93.7838 10.3056L100.684 9.1148C101.103 9.04244 101.466 8.72969 101.653 8.27846L104.739 0.852223ZM135.633 0.852223C136.105 -0.284073 137.469 -0.284075 137.941 0.852221L141.027 8.27846C141.215 8.72969 141.577 9.04244 141.996 9.1148L148.896 10.3056C149.952 10.4879 150.374 12.0289 149.61 12.9134L144.617 18.6939C144.313 19.0451 144.175 19.5512 144.247 20.0471L145.425 28.2093C145.606 29.4582 144.502 30.4106 143.558 29.821L137.386 25.9673C137.011 25.7332 136.563 25.7332 136.188 25.9673L130.016 29.821C129.072 30.4106 127.968 29.4582 128.148 28.2093L129.327 20.0471C129.399 19.5512 129.26 19.0451 128.957 18.6939L123.964 12.9134C123.2 12.0289 123.621 10.4879 124.677 10.3056L131.577 9.1148C131.997 9.04244 132.359 8.72969 132.547 8.27846L135.633 0.852223Z" fill="#FFC700"/>
<path d="M12.0588 0.852223C12.531 -0.284073 13.8953 -0.284075 14.3674 0.852221L17.4533 8.27846C17.6408 8.72969 18.0032 9.04244 18.4225 9.1148L25.3227 10.3056C26.3785 10.4879 26.8001 12.0289 26.0361 12.9134L21.0431 18.6939C20.7397 19.0451 20.6013 19.5512 20.6729 20.0471L21.8516 28.2093C22.0319 29.4582 20.9282 30.4106 19.9839 29.821L13.8121 25.9673C13.4371 25.7332 12.9891 25.7332 12.6141 25.9673L6.44239 29.821C5.49804 30.4106 4.39433 29.4582 4.57468 28.2093L5.75338 20.0471C5.825 19.5512 5.68656 19.0451 5.38318 18.6939L0.390134 12.9134C-0.373856 12.0289 0.0477218 10.4879 1.10353 10.3056L8.00375 9.1148C8.42302 9.04244 8.78546 8.72969 8.97296 8.27846L12.0588 0.852223ZM42.9523 0.852223C43.4244 -0.284073 44.7887 -0.284075 45.2609 0.852221L48.3467 8.27846C48.5342 8.72969 48.8967 9.04244 49.3159 9.1148L56.2162 10.3056C57.272 10.4879 57.6936 12.0289 56.9296 12.9134L51.9365 18.6939C51.6331 19.0451 51.4947 19.5512 51.5663 20.0471L52.745 28.2093C52.9254 29.4582 51.8217 30.4106 50.8773 29.821L44.7056 25.9673C44.3306 25.7332 43.8826 25.7332 43.5076 25.9673L37.3358 29.821C36.3915 30.4106 35.2878 29.4582 35.4681 28.2093L36.6468 20.0471C36.7184 19.5512 36.58 19.0451 36.2766 18.6939L31.2836 12.9134C30.5196 12.0289 30.9412 10.4879 31.997 10.3056L38.8972 9.1148C39.3165 9.04244 39.6789 8.72969 39.8664 8.27846L42.9523 0.852223ZM73.8457 0.852223C74.3179 -0.284073 75.6821 -0.284075 76.1543 0.852221L79.2402 8.27846C79.4277 8.72969 79.7901 9.04244 80.2094 9.1148L87.1096 10.3056C88.1654 10.4879 88.587 12.0289 87.823 12.9134L82.83 18.6939C82.5266 19.0451 82.3881 19.5512 82.4598 20.0471L83.6385 28.2093C83.8188 29.4582 82.7151 30.4106 81.7707 29.821L75.599 25.9673C75.224 25.7332 74.776 25.7332 74.401 25.9673L68.2293 29.821C67.2849 30.4106 66.1812 29.4582 66.3616 28.2093L67.5403 20.0471C67.6119 19.5512 67.4734 19.0451 67.1701 18.6939L62.177 12.9134C61.413 12.0289 61.8346 10.4879 62.8904 10.3056L69.7906 9.1148C70.2099 9.04244 70.5723 8.72969 70.7598 8.27846L73.8457 0.852223ZM104.739 0.852223C105.211 -0.284073 106.576 -0.284075 107.048 0.852221L110.134 8.27846C110.321 8.72969 110.684 9.04244 111.103 9.1148L118.003 10.3056C119.059 10.4879 119.48 12.0289 118.716 12.9134L113.723 18.6939C113.42 19.0451 113.282 19.5512 113.353 20.0471L114.532 28.2093C114.712 29.4582 113.609 30.4106 112.664 29.821L106.492 25.9673C106.117 25.7332 105.669 25.7332 105.294 25.9673L99.1227 29.821C98.1783 30.4106 97.0746 29.4582 97.255 28.2093L98.4337 20.0471C98.5053 19.5512 98.3669 19.0451 98.0635 18.6939L93.0704 12.9134C92.3064 12.0289 92.728 10.4879 93.7838 10.3056L100.684 9.1148C101.103 9.04244 101.466 8.72969 101.653 8.27846L104.739 0.852223ZM135.633 0.852223C136.105 -0.284073 137.469 -0.284075 137.941 0.852221L141.027 8.27846C141.215 8.72969 141.577 9.04244 141.996 9.1148L148.896 10.3056C149.952 10.4879 150.374 12.0289 149.61 12.9134L144.617 18.6939C144.313 19.0451 144.175 19.5512 144.247 20.0471L145.425 28.2093C145.606 29.4582 144.502 30.4106 143.558 29.821L137.386 25.9673C137.011 25.7332 136.563 25.7332 136.188 25.9673L130.016 29.821C129.072 30.4106 127.968 29.4582 128.148 28.2093L129.327 20.0471C129.399 19.5512 129.26 19.0451 128.957 18.6939L123.964 12.9134C123.2 12.0289 123.621 10.4879 124.677 10.3056L131.577 9.1148C131.997 9.04244 132.359 8.72969 132.547 8.27846L135.633 0.852223Z" fill="#FFC700"/>
<path d="M12.0588 0.852223C12.531 -0.284073 13.8953 -0.284075 14.3674 0.852221L17.4533 8.27846C17.6408 8.72969 18.0032 9.04244 18.4225 9.1148L25.3227 10.3056C26.3785 10.4879 26.8001 12.0289 26.0361 12.9134L21.0431 18.6939C20.7397 19.0451 20.6013 19.5512 20.6729 20.0471L21.8516 28.2093C22.0319 29.4582 20.9282 30.4106 19.9839 29.821L13.8121 25.9673C13.4371 25.7332 12.9891 25.7332 12.6141 25.9673L6.44239 29.821C5.49804 30.4106 4.39433 29.4582 4.57468 28.2093L5.75338 20.0471C5.825 19.5512 5.68656 19.0451 5.38318 18.6939L0.390134 12.9134C-0.373856 12.0289 0.0477218 10.4879 1.10353 10.3056L8.00375 9.1148C8.42302 9.04244 8.78546 8.72969 8.97296 8.27846L12.0588 0.852223ZM42.9523 0.852223C43.4244 -0.284073 44.7887 -0.284075 45.2609 0.852221L48.3467 8.27846C48.5342 8.72969 48.8967 9.04244 49.3159 9.1148L56.2162 10.3056C57.272 10.4879 57.6936 12.0289 56.9296 12.9134L51.9365 18.6939C51.6331 19.0451 51.4947 19.5512 51.5663 20.0471L52.745 28.2093C52.9254 29.4582 51.8217 30.4106 50.8773 29.821L44.7056 25.9673C44.3306 25.7332 43.8826 25.7332 43.5076 25.9673L37.3358 29.821C36.3915 30.4106 35.2878 29.4582 35.4681 28.2093L36.6468 20.0471C36.7184 19.5512 36.58 19.0451 36.2766 18.6939L31.2836 12.9134C30.5196 12.0289 30.9412 10.4879 31.997 10.3056L38.8972 9.1148C39.3165 9.04244 39.6789 8.72969 39.8664 8.27846L42.9523 0.852223ZM73.8457 0.852223C74.3179 -0.284073 75.6821 -0.284075 76.1543 0.852221L79.2402 8.27846C79.4277 8.72969 79.7901 9.04244 80.2094 9.1148L87.1096 10.3056C88.1654 10.4879 88.587 12.0289 87.823 12.9134L82.83 18.6939C82.5266 19.0451 82.3881 19.5512 82.4598 20.0471L83.6385 28.2093C83.8188 29.4582 82.7151 30.4106 81.7707 29.821L75.599 25.9673C75.224 25.7332 74.776 25.7332 74.401 25.9673L68.2293 29.821C67.2849 30.4106 66.1812 29.4582 66.3616 28.2093L67.5403 20.0471C67.6119 19.5512 67.4734 19.0451 67.1701 18.6939L62.177 12.9134C61.413 12.0289 61.8346 10.4879 62.8904 10.3056L69.7906 9.1148C70.2099 9.04244 70.5723 8.72969 70.7598 8.27846L73.8457 0.852223ZM104.739 0.852223C105.211 -0.284073 106.576 -0.284075 107.048 0.852221L110.134 8.27846C110.321 8.72969 110.684 9.04244 111.103 9.1148L118.003 10.3056C119.059 10.4879 119.48 12.0289 118.716 12.9134L113.723 18.6939C113.42 19.0451 113.282 19.5512 113.353 20.0471L114.532 28.2093C114.712 29.4582 113.609 30.4106 112.664 29.821L106.492 25.9673C106.117 25.7332 105.669 25.7332 105.294 25.9673L99.1227 29.821C98.1783 30.4106 97.0746 29.4582 97.255 28.2093L98.4337 20.0471C98.5053 19.5512 98.3669 19.0451 98.0635 18.6939L93.0704 12.9134C92.3064 12.0289 92.728 10.4879 93.7838 10.3056L100.684 9.1148C101.103 9.04244 101.466 8.72969 101.653 8.27846L104.739 0.852223ZM135.633 0.852223C136.105 -0.284073 137.469 -0.284075 137.941 0.852221L141.027 8.27846C141.215 8.72969 141.577 9.04244 141.996 9.1148L148.896 10.3056C149.952 10.4879 150.374 12.0289 149.61 12.9134L144.617 18.6939C144.313 19.0451 144.175 19.5512 144.247 20.0471L145.425 28.2093C145.606 29.4582 144.502 30.4106 143.558 29.821L137.386 25.9673C137.011 25.7332 136.563 25.7332 136.188 25.9673L130.016 29.821C129.072 30.4106 127.968 29.4582 128.148 28.2093L129.327 20.0471C129.399 19.5512 129.26 19.0451 128.957 18.6939L123.964 12.9134C123.2 12.0289 123.621 10.4879 124.677 10.3056L131.577 9.1148C131.997 9.04244 132.359 8.72969 132.547 8.27846L135.633 0.852223Z" fill="#FFC700"/>
<path d="M12.0588 0.852223C12.531 -0.284073 13.8953 -0.284075 14.3674 0.852221L17.4533 8.27846C17.6408 8.72969 18.0032 9.04244 18.4225 9.1148L25.3227 10.3056C26.3785 10.4879 26.8001 12.0289 26.0361 12.9134L21.0431 18.6939C20.7397 19.0451 20.6013 19.5512 20.6729 20.0471L21.8516 28.2093C22.0319 29.4582 20.9282 30.4106 19.9839 29.821L13.8121 25.9673C13.4371 25.7332 12.9891 25.7332 12.6141 25.9673L6.44239 29.821C5.49804 30.4106 4.39433 29.4582 4.57468 28.2093L5.75338 20.0471C5.825 19.5512 5.68656 19.0451 5.38318 18.6939L0.390134 12.9134C-0.373856 12.0289 0.0477218 10.4879 1.10353 10.3056L8.00375 9.1148C8.42302 9.04244 8.78546 8.72969 8.97296 8.27846L12.0588 0.852223ZM42.9523 0.852223C43.4244 -0.284073 44.7887 -0.284075 45.2609 0.852221L48.3467 8.27846C48.5342 8.72969 48.8967 9.04244 49.3159 9.1148L56.2162 10.3056C57.272 10.4879 57.6936 12.0289 56.9296 12.9134L51.9365 18.6939C51.6331 19.0451 51.4947 19.5512 51.5663 20.0471L52.745 28.2093C52.9254 29.4582 51.8217 30.4106 50.8773 29.821L44.7056 25.9673C44.3306 25.7332 43.8826 25.7332 43.5076 25.9673L37.3358 29.821C36.3915 30.4106 35.2878 29.4582 35.4681 28.2093L36.6468 20.0471C36.7184 19.5512 36.58 19.0451 36.2766 18.6939L31.2836 12.9134C30.5196 12.0289 30.9412 10.4879 31.997 10.3056L38.8972 9.1148C39.3165 9.04244 39.6789 8.72969 39.8664 8.27846L42.9523 0.852223ZM73.8457 0.852223C74.3179 -0.284073 75.6821 -0.284075 76.1543 0.852221L79.2402 8.27846C79.4277 8.72969 79.7901 9.04244 80.2094 9.1148L87.1096 10.3056C88.1654 10.4879 88.587 12.0289 87.823 12.9134L82.83 18.6939C82.5266 19.0451 82.3881 19.5512 82.4598 20.0471L83.6385 28.2093C83.8188 29.4582 82.7151 30.4106 81.7707 29.821L75.599 25.9673C75.224 25.7332 74.776 25.7332 74.401 25.9673L68.2293 29.821C67.2849 30.4106 66.1812 29.4582 66.3616 28.2093L67.5403 20.0471C67.6119 19.5512 67.4734 19.0451 67.1701 18.6939L62.177 12.9134C61.413 12.0289 61.8346 10.4879 62.8904 10.3056L69.7906 9.1148C70.2099 9.04244 70.5723 8.72969 70.7598 8.27846L73.8457 0.852223ZM104.739 0.852223C105.211 -0.284073 106.576 -0.284075 107.048 0.852221L110.134 8.27846C110.321 8.72969 110.684 9.04244 111.103 9.1148L118.003 10.3056C119.059 10.4879 119.48 12.0289 118.716 12.9134L113.723 18.6939C113.42 19.0451 113.282 19.5512 113.353 20.0471L114.532 28.2093C114.712 29.4582 113.609 30.4106 112.664 29.821L106.492 25.9673C106.117 25.7332 105.669 25.7332 105.294 25.9673L99.1227 29.821C98.1783 30.4106 97.0746 29.4582 97.255 28.2093L98.4337 20.0471C98.5053 19.5512 98.3669 19.0451 98.0635 18.6939L93.0704 12.9134C92.3064 12.0289 92.728 10.4879 93.7838 10.3056L100.684 9.1148C101.103 9.04244 101.466 8.72969 101.653 8.27846L104.739 0.852223ZM135.633 0.852223C136.105 -0.284073 137.469 -0.284075 137.941 0.852221L141.027 8.27846C141.215 8.72969 141.577 9.04244 141.996 9.1148L148.896 10.3056C149.952 10.4879 150.374 12.0289 149.61 12.9134L144.617 18.6939C144.313 19.0451 144.175 19.5512 144.247 20.0471L145.425 28.2093C145.606 29.4582 144.502 30.4106 143.558 29.821L137.386 25.9673C137.011 25.7332 136.563 25.7332 136.188 25.9673L130.016 29.821C129.072 30.4106 127.968 29.4582 128.148 28.2093L129.327 20.0471C129.399 19.5512 129.26 19.0451 128.957 18.6939L123.964 12.9134C123.2 12.0289 123.621 10.4879 124.677 10.3056L131.577 9.1148C131.997 9.04244 132.359 8.72969 132.547 8.27846L135.633 0.852223Z" fill="#FFC700"/>
<path d="M12.0588 0.852223C12.531 -0.284073 13.8953 -0.284075 14.3674 0.852221L17.4533 8.27846C17.6408 8.72969 18.0032 9.04244 18.4225 9.1148L25.3227 10.3056C26.3785 10.4879 26.8001 12.0289 26.0361 12.9134L21.0431 18.6939C20.7397 19.0451 20.6013 19.5512 20.6729 20.0471L21.8516 28.2093C22.0319 29.4582 20.9282 30.4106 19.9839 29.821L13.8121 25.9673C13.4371 25.7332 12.9891 25.7332 12.6141 25.9673L6.44239 29.821C5.49804 30.4106 4.39433 29.4582 4.57468 28.2093L5.75338 20.0471C5.825 19.5512 5.68656 19.0451 5.38318 18.6939L0.390134 12.9134C-0.373856 12.0289 0.0477218 10.4879 1.10353 10.3056L8.00375 9.1148C8.42302 9.04244 8.78546 8.72969 8.97296 8.27846L12.0588 0.852223ZM42.9523 0.852223C43.4244 -0.284073 44.7887 -0.284075 45.2609 0.852221L48.3467 8.27846C48.5342 8.72969 48.8967 9.04244 49.3159 9.1148L56.2162 10.3056C57.272 10.4879 57.6936 12.0289 56.9296 12.9134L51.9365 18.6939C51.6331 19.0451 51.4947 19.5512 51.5663 20.0471L52.745 28.2093C52.9254 29.4582 51.8217 30.4106 50.8773 29.821L44.7056 25.9673C44.3306 25.7332 43.8826 25.7332 43.5076 25.9673L37.3358 29.821C36.3915 30.4106 35.2878 29.4582 35.4681 28.2093L36.6468 20.0471C36.7184 19.5512 36.58 19.0451 36.2766 18.6939L31.2836 12.9134C30.5196 12.0289 30.9412 10.4879 31.997 10.3056L38.8972 9.1148C39.3165 9.04244 39.6789 8.72969 39.8664 8.27846L42.9523 0.852223ZM73.8457 0.852223C74.3179 -0.284073 75.6821 -0.284075 76.1543 0.852221L79.2402 8.27846C79.4277 8.72969 79.7901 9.04244 80.2094 9.1148L87.1096 10.3056C88.1654 10.4879 88.587 12.0289 87.823 12.9134L82.83 18.6939C82.5266 19.0451 82.3881 19.5512 82.4598 20.0471L83.6385 28.2093C83.8188 29.4582 82.7151 30.4106 81.7707 29.821L75.599 25.9673C75.224 25.7332 74.776 25.7332 74.401 25.9673L68.2293 29.821C67.2849 30.4106 66.1812 29.4582 66.3616 28.2093L67.5403 20.0471C67.6119 19.5512 67.4734 19.0451 67.1701 18.6939L62.177 12.9134C61.413 12.0289 61.8346 10.4879 62.8904 10.3056L69.7906 9.1148C70.2099 9.04244 70.5723 8.72969 70.7598 8.27846L73.8457 0.852223ZM104.739 0.852223C105.211 -0.284073 106.576 -0.284075 107.048 0.852221L110.134 8.27846C110.321 8.72969 110.684 9.04244 111.103 9.1148L118.003 10.3056C119.059 10.4879 119.48 12.0289 118.716 12.9134L113.723 18.6939C113.42 19.0451 113.282 19.5512 113.353 20.0471L114.532 28.2093C114.712 29.4582 113.609 30.4106 112.664 29.821L106.492 25.9673C106.117 25.7332 105.669 25.7332 105.294 25.9673L99.1227 29.821C98.1783 30.4106 97.0746 29.4582 97.255 28.2093L98.4337 20.0471C98.5053 19.5512 98.3669 19.0451 98.0635 18.6939L93.0704 12.9134C92.3064 12.0289 92.728 10.4879 93.7838 10.3056L100.684 9.1148C101.103 9.04244 101.466 8.72969 101.653 8.27846L104.739 0.852223ZM135.633 0.852223C136.105 -0.284073 137.469 -0.284075 137.941 0.852221L141.027 8.27846C141.215 8.72969 141.577 9.04244 141.996 9.1148L148.896 10.3056C149.952 10.4879 150.374 12.0289 149.61 12.9134L144.617 18.6939C144.313 19.0451 144.175 19.5512 144.247 20.0471L145.425 28.2093C145.606 29.4582 144.502 30.4106 143.558 29.821L137.386 25.9673C137.011 25.7332 136.563 25.7332 136.188 25.9673L130.016 29.821C129.072 30.4106 127.968 29.4582 128.148 28.2093L129.327 20.0471C129.399 19.5512 129.26 19.0451 128.957 18.6939L123.964 12.9134C123.2 12.0289 123.621 10.4879 124.677 10.3056L131.577 9.1148C131.997 9.04244 132.359 8.72969 132.547 8.27846L135.633 0.852223Z" fill="#FFC700"/>
</svg>
