<svg width="60" height="60" viewBox="0 0 60 60" fill="none" xmlns="http://www.w3.org/2000/svg">
<path d="M53.6174 50.1857L59.7861 39.8143C60.1827 39.1714 60.0064 38.3571 59.4336 37.8857L52.9124 32.9143C53.0446 31.9714 53.1327 30.9857 53.1327 30C53.1327 29.0143 53.0446 28.0286 52.9124 27.0429L59.4336 22.0714C60.0064 21.6 60.1827 20.7857 59.7861 20.1429L53.6174 9.77143C53.2208 9.12857 52.4277 8.87143 51.7227 9.12857L44.0559 12.1286C42.4696 10.9286 40.7512 9.94286 38.8565 9.17143L37.7109 1.24286C37.637 0.896237 37.444 0.584383 37.1638 0.358524C36.8835 0.132665 36.5326 0.00623427 36.1687 0H23.8313C23.0822 0 22.4213 0.557143 22.2891 1.28571L21.1435 9.21429C19.2929 9.98571 17.5304 10.9714 15.9441 12.1714L8.27728 9.17143C7.57228 8.91428 6.77916 9.17143 6.3826 9.81429L0.213872 20.1857C-0.182689 20.8286 -0.00643908 21.6429 0.566371 22.1143L7.08759 27.0857C6.95541 28.0286 6.86728 29.0143 6.86728 30C6.86728 30.9857 6.95541 31.9714 7.08759 32.9571L0.566371 37.9286C-0.00643908 38.4 -0.182689 39.2143 0.213872 39.8571L6.3826 50.2286C6.77916 50.8714 7.57228 51.1286 8.27728 50.8714L15.9441 47.8714C17.5304 49.0714 19.2488 50.0571 21.1435 50.8286L22.2891 58.7571C22.4213 59.4429 23.0822 60 23.8313 60H36.1687C36.9178 60 37.5787 59.4429 37.7109 58.7143L38.8565 50.7857C40.7071 50.0143 42.4696 49.0286 44.0559 47.8286L51.7227 50.8286C52.4277 51.0857 53.2208 50.8286 53.6174 50.1857ZM30 38.5714C25.1531 38.5714 21.1875 34.7143 21.1875 30C21.1875 25.2857 25.1531 21.4286 30 21.4286C34.8469 21.4286 38.8125 25.2857 38.8125 30C38.8125 34.7143 34.8469 38.5714 30 38.5714Z" fill="#604499"/>
</svg>
