<svg width="84" height="80" viewBox="0 0 84 80" fill="none" xmlns="http://www.w3.org/2000/svg">
<path d="M55.4167 58.7545L61.25 53.1588L45.8333 38.3703V19.9845H37.5V41.5678L55.4167 58.7545ZM41.6667 79.9381C35.9028 79.9381 30.4861 78.8889 25.4167 76.7906C20.3472 74.6922 15.9375 71.8444 12.1875 68.2472C8.4375 64.65 5.46875 60.4199 3.28125 55.557C1.09375 50.6941 0 45.4981 0 39.9691C0 34.44 1.09375 29.244 3.28125 24.3811C5.46875 19.5182 8.4375 15.2882 12.1875 11.691C15.9375 8.09373 20.3472 5.24594 25.4167 3.14756C30.4861 1.04919 35.9028 0 41.6667 0C47.4306 0 52.8472 1.04919 57.9167 3.14756C62.9861 5.24594 67.3958 8.09373 71.1458 11.691C74.8958 15.2882 77.8646 19.5182 80.0521 24.3811C82.2396 29.244 83.3333 34.44 83.3333 39.9691C83.3333 45.4981 82.2396 50.6941 80.0521 55.557C77.8646 60.4199 74.8958 64.65 71.1458 68.2472C67.3958 71.8444 62.9861 74.6922 57.9167 76.7906C52.8472 78.8889 47.4306 79.9381 41.6667 79.9381ZM41.6667 71.9443C50.9028 71.9443 58.7674 68.8301 65.2604 62.6015C71.7535 56.373 75 48.8289 75 39.9691C75 31.1093 71.7535 23.5651 65.2604 17.3366C58.7674 11.1081 50.9028 7.99381 41.6667 7.99381C32.4306 7.99381 24.566 11.1081 18.0729 17.3366C11.5799 23.5651 8.33333 31.1093 8.33333 39.9691C8.33333 48.8289 11.5799 56.373 18.0729 62.6015C24.566 68.8301 32.4306 71.9443 41.6667 71.9443Z" fill="#6B4CAA"/>
</svg>
