<svg width="70" height="70" viewBox="0 0 70 70" fill="none" xmlns="http://www.w3.org/2000/svg">
<path d="M35 0C15.68 0 0 15.68 0 35C0 54.32 15.68 70 35 70C54.32 70 70 54.32 70 35C70 15.68 54.32 0 35 0ZM35 14C41.755 14 47.25 19.495 47.25 26.25C47.25 33.005 41.755 38.5 35 38.5C28.245 38.5 22.75 33.005 22.75 26.25C22.75 19.495 28.245 14 35 14ZM35 63C27.895 63 19.495 60.13 13.51 52.92C19.6406 48.11 27.2077 45.4958 35 45.4958C42.7923 45.4958 50.3594 48.11 56.49 52.92C50.505 60.13 42.105 63 35 63Z" fill="#604499"/>
</svg>
