<svg width="70" height="71" viewBox="0 0 70 71" fill="none" xmlns="http://www.w3.org/2000/svg">
<path d="M62.2222 7.5H45.9667C44.3333 3.44 40.0556 0.5 35 0.5C29.9444 0.5 25.6667 3.44 24.0333 7.5H7.77778C3.5 7.5 0 10.65 0 14.5V63.5C0 67.35 3.5 70.5 7.77778 70.5H62.2222C66.5 70.5 70 67.35 70 63.5V14.5C70 10.65 66.5 7.5 62.2222 7.5ZM35 7.5C37.1389 7.5 38.8889 9.075 38.8889 11C38.8889 12.925 37.1389 14.5 35 14.5C32.8611 14.5 31.1111 12.925 31.1111 11C31.1111 9.075 32.8611 7.5 35 7.5ZM42.7778 56.5H15.5556V49.5H42.7778V56.5ZM54.4444 42.5H15.5556V35.5H54.4444V42.5ZM54.4444 28.5H15.5556V21.5H54.4444V28.5Z" fill="white"/>
</svg>
