<svg width="84" height="64" viewBox="0 0 84 64" fill="none" xmlns="http://www.w3.org/2000/svg">
<path d="M0 63.9505V51.9598H8.33333V7.99381C8.33333 5.79551 9.14931 3.91364 10.7813 2.34818C12.4132 0.782727 14.375 0 16.6667 0H79.1667V7.99381H16.6667V51.9598H41.6667V63.9505H0ZM54.1667 63.9505C52.9861 63.9505 51.9965 63.5675 51.1979 62.8014C50.3993 62.0353 50 61.086 50 59.9536V19.9845C50 18.8521 50.3993 17.9028 51.1979 17.1367C51.9965 16.3707 52.9861 15.9876 54.1667 15.9876H79.1667C80.3472 15.9876 81.3368 16.3707 82.1354 17.1367C82.934 17.9028 83.3333 18.8521 83.3333 19.9845V59.9536C83.3333 61.086 82.934 62.0353 82.1354 62.8014C81.3368 63.5675 80.3472 63.9505 79.1667 63.9505H54.1667ZM58.3333 51.9598H75V23.9814H58.3333V51.9598Z" fill="#6B4CAA"/>
</svg>
