<svg width="20" height="21" viewBox="0 0 20 21" fill="none" xmlns="http://www.w3.org/2000/svg">
<path d="M8.561 18.061H1.59836V5.10905H17.418V11.8992L18.7696 10.6268V4.40244C18.7696 3.32927 17.8311 2.45122 16.684 2.45122H15.6413V0.5H13.5558V2.45122H5.21376V0.5H3.12826V2.45122H2.08551C0.92805 2.45122 0.0104275 3.32927 0.0104275 4.40244L0 18.061C0 18.5785 0.219722 19.0748 0.61083 19.4407C1.00194 19.8066 1.5324 20.0122 2.08551 20.0122H10.6465L8.561 18.061ZM14.1189 20.5L10.4275 17.0463L11.8978 15.6707L14.1084 17.739L18.5297 13.6024L20 14.978L14.1189 20.5ZM7.7268 12.2073L9.38478 13.7585L7.91449 15.1341L6.25652 13.5829L4.59854 15.1341L3.12826 13.7585L4.78624 12.2073L3.12826 10.6561L4.59854 9.28049L6.25652 10.8317L7.91449 9.28049L9.38478 10.6561L7.7268 12.2073Z" fill="#4E377E"/>
</svg>
