<svg width="60" height="60" viewBox="0 0 60 60" fill="none" xmlns="http://www.w3.org/2000/svg">
<path d="M53.3333 6H50V3C50 1.35 48.5 0 46.6667 0C44.8333 0 43.3333 1.35 43.3333 3V6H16.6667V3C16.6667 1.35 15.1667 0 13.3333 0C11.5 0 10 1.35 10 3V6H6.66667C2.96667 6 0.0333333 8.7 0.0333333 12L0 54C0 55.5913 0.702379 57.1174 1.95262 58.2426C3.20286 59.3679 4.89856 60 6.66667 60H53.3333C57 60 60 57.3 60 54V12C60 8.7 57 6 53.3333 6ZM53.3333 51C53.3333 52.65 51.8333 54 50 54H10C8.16667 54 6.66667 52.65 6.66667 51V21H53.3333V51ZM13.3333 27H20V33H13.3333V27ZM26.6667 27H33.3333V33H26.6667V27ZM40 27H46.6667V33H40V27Z" fill="#604499"/>
</svg>
