<svg width="65" height="59" viewBox="0 0 65 59" fill="none" xmlns="http://www.w3.org/2000/svg">
<path d="M30.0002 11.9167V0.25H0.833496V52.75H41.6668V46.9167H30.0002V41.0833H35.8335V35.25H30.0002V29.4167H35.8335V23.5833H30.0002V17.75H53.3335V35.25H59.1668V11.9167H30.0002ZM12.5002 46.9167H6.66683V41.0833H12.5002V46.9167ZM12.5002 35.25H6.66683V29.4167H12.5002V35.25ZM12.5002 23.5833H6.66683V17.75H12.5002V23.5833ZM12.5002 11.9167H6.66683V6.08333H12.5002V11.9167ZM24.1668 46.9167H18.3335V41.0833H24.1668V46.9167ZM24.1668 35.25H18.3335V29.4167H24.1668V35.25ZM24.1668 23.5833H18.3335V17.75H24.1668V23.5833ZM24.1668 11.9167H18.3335V6.08333H24.1668V11.9167ZM65.0002 46.9167V52.75H59.1668V58.5833H53.3335V52.75H47.5002V46.9167H53.3335V41.0833H59.1668V46.9167H65.0002ZM47.5002 23.5833H41.6668V29.4167H47.5002V23.5833ZM47.5002 35.25H41.6668V41.0833H47.5002V35.25Z" fill="white"/>
</svg>
