<svg width="39" height="41" viewBox="0 0 39 41" fill="none" xmlns="http://www.w3.org/2000/svg">
<g filter="url(#filter0_d_0_503)">
<path d="M28.3594 2.26624L34.445 8.60999V32.7337H11.7114V32.8125H34.5227V8.68983L28.3594 2.26624Z" fill="#909090"/>
<path d="M28.2839 2.1875H11.6338V32.7337H34.445V8.61109L28.2839 2.1875Z" fill="white"/>
<path d="M11.4664 3.82812H4.47729V11.2952H26.4617V3.82812H11.4664Z" fill="#7A7B7C"/>
<path d="M26.5787 11.1683H4.61951V3.6958H26.5787V11.1683Z" fill="#DD2025"/>
<path d="M11.9006 4.95904H10.4711V10.209H11.5954V8.43826L11.8437 8.45248C12.0851 8.44916 12.3242 8.40591 12.5514 8.32451C12.7511 8.25669 12.9347 8.14833 13.0906 8.00623C13.2505 7.87218 13.3761 7.70196 13.457 7.50967C13.5677 7.19107 13.607 6.852 13.5719 6.51654C13.5656 6.27685 13.5236 6.03944 13.4472 5.81217C13.3783 5.6479 13.2759 5.49981 13.1465 5.37739C13.0171 5.25497 12.8636 5.16091 12.6958 5.10123C12.5511 5.04764 12.4011 5.00951 12.2484 4.98748C12.1331 4.9687 12.0164 4.95919 11.8995 4.95904M11.6928 7.46811H11.5954V5.84936H11.8065C11.8997 5.84264 11.9932 5.85694 12.0801 5.89121C12.167 5.92547 12.2451 5.97882 12.3086 6.04732C12.4402 6.22343 12.5105 6.4378 12.5087 6.65764C12.5087 6.9267 12.5087 7.17061 12.2659 7.34232C12.091 7.43865 11.8919 7.48307 11.6928 7.46811ZM15.7079 4.94482C15.5865 4.94482 15.4684 4.95357 15.3853 4.95686L15.125 4.96342H14.2719V10.2134H15.2759C15.6596 10.2233 16.0415 10.1583 16.4003 10.022C16.6892 9.90793 16.9449 9.7233 17.144 9.48498C17.3392 9.24562 17.4786 8.96576 17.552 8.66576C17.6383 8.32662 17.6802 7.97772 17.6767 7.62779C17.6981 7.21453 17.6661 6.80022 17.5815 6.39514C17.5006 6.0973 17.3507 5.82267 17.144 5.59342C16.9819 5.40804 16.7825 5.25896 16.5589 5.15592C16.3673 5.06711 16.1657 5.00174 15.9584 4.96123C15.876 4.94772 15.7925 4.9415 15.709 4.94264M15.51 9.24873H15.4006V5.89748H15.4148C15.6403 5.87141 15.8685 5.9121 16.0711 6.01451C16.2195 6.13299 16.3404 6.28226 16.4254 6.45201C16.5173 6.63066 16.5702 6.82674 16.5808 7.02732C16.5906 7.26795 16.5808 7.46482 16.5808 7.62779C16.5848 7.81551 16.5727 8.00323 16.5447 8.18889C16.5103 8.37927 16.448 8.56354 16.3598 8.73576C16.2602 8.89637 16.1242 9.03126 15.9628 9.12951C15.8279 9.21702 15.6681 9.25775 15.5078 9.24545M21.064 4.96342H18.4062V10.2134H19.5306V8.13092H20.9525V7.15529H19.5306V5.93904H21.0619V4.96342" fill="#464648"/>
<path d="M25.823 22.1539C25.823 22.1539 29.3099 21.5217 29.3099 22.7128C29.3099 23.9039 27.1497 23.4194 25.823 22.1539ZM23.245 22.2447C22.6909 22.3668 22.151 22.546 21.6339 22.7795L22.0714 21.7952C22.5089 20.8108 22.9628 19.4687 22.9628 19.4687C23.4836 20.3483 24.0911 21.1734 24.7763 21.9319C24.2605 22.0087 23.7493 22.1139 23.245 22.2469V22.2447ZM21.8647 15.1353C21.8647 14.0973 22.2005 13.8141 22.4619 13.8141C22.7233 13.8141 23.0175 13.9398 23.0274 14.8411C22.9421 15.7473 22.7523 16.6406 22.4619 17.5033C22.0627 16.7795 21.8567 15.9651 21.8636 15.1386L21.8647 15.1353ZM16.7799 26.6372C15.7102 25.9973 19.0232 24.0275 19.6236 23.9641C19.6203 23.9652 17.8999 27.3066 16.7799 26.6372ZM30.3282 22.8539C30.3172 22.7445 30.2188 21.5337 28.0641 21.5852C27.1659 21.5694 26.2682 21.6327 25.3811 21.7744C24.5213 20.9089 23.7812 19.9323 23.1805 18.8705C23.5587 17.7759 23.7879 16.6355 23.8619 15.4798C23.8302 14.1673 23.5163 13.4148 22.51 13.4258C21.5038 13.4367 21.3572 14.3172 21.4896 15.6275C21.6191 16.508 21.8636 17.3678 22.2169 18.1847C22.2169 18.1847 21.7521 19.6317 21.1374 21.0711C20.5227 22.5105 20.1027 23.2652 20.1027 23.2652C19.0336 23.6127 18.0273 24.1297 17.1222 24.7964C16.221 25.6353 15.8546 26.2795 16.3292 26.9237C16.7383 27.4794 18.17 27.6052 19.4497 25.9284C20.1285 25.0616 20.7496 24.1511 21.3091 23.2028C21.3091 23.2028 23.2603 22.668 23.8674 22.5214C24.4744 22.3748 25.2083 22.2589 25.2083 22.2589C25.2083 22.2589 26.99 24.0516 28.7083 23.9881C30.4266 23.9247 30.3435 22.9611 30.3325 22.8561" fill="#DD2025"/>
<path d="M28.1997 2.27173V8.69532H34.3608L28.1997 2.27173Z" fill="#909090"/>
<path d="M28.2839 2.1875V8.61109H34.445L28.2839 2.1875Z" fill="#F4F4F4"/>
<path d="M11.8164 4.87481H10.3868V10.1248H11.5156V8.35513L11.765 8.36935C12.0063 8.36602 12.2454 8.32278 12.4726 8.24138C12.6724 8.17356 12.8559 8.0652 13.0118 7.9231C13.1705 7.78868 13.295 7.61848 13.375 7.42653C13.4857 7.10794 13.5249 6.76887 13.4898 6.43341C13.4836 6.19372 13.4415 5.9563 13.3651 5.72903C13.2963 5.56476 13.1938 5.41668 13.0645 5.29426C12.9351 5.17184 12.7815 5.07778 12.6137 5.0181C12.4684 4.96399 12.3177 4.92549 12.1642 4.90325C12.0488 4.88447 11.9322 4.87496 11.8153 4.87481M11.6086 7.38388H11.5112V5.76513H11.7234C11.8166 5.75841 11.9101 5.77271 11.9969 5.80698C12.0838 5.84124 12.1619 5.8946 12.2254 5.9631C12.357 6.13921 12.4273 6.35357 12.4256 6.57341C12.4256 6.84247 12.4256 7.08638 12.1828 7.2581C12.0079 7.35443 11.8087 7.39775 11.6097 7.38278M15.6237 4.8606C15.5023 4.8606 15.3842 4.86935 15.3011 4.87263L15.044 4.87919H14.1909V10.1292H15.195C15.5786 10.1391 15.9605 10.074 16.3193 9.93778C16.6082 9.8237 16.8639 9.63907 17.0631 9.40075C17.2583 9.16139 17.3976 8.88153 17.4711 8.58153C17.5573 8.24239 17.5992 7.89349 17.5957 7.54356C17.6172 7.1303 17.5852 6.71599 17.5006 6.31091C17.4196 6.01307 17.2698 5.73844 17.0631 5.50919C16.901 5.32381 16.7016 5.17473 16.4779 5.07169C16.2863 4.98288 16.0847 4.91751 15.8775 4.877C15.795 4.86349 15.7116 4.85727 15.6281 4.85841M15.429 9.1645H15.3197V5.81325H15.3339C15.5594 5.78718 15.7875 5.82787 15.9901 5.93028C16.1385 6.04877 16.2594 6.19803 16.3445 6.36778C16.4363 6.54643 16.4893 6.74251 16.4998 6.9431C16.5097 7.18372 16.4998 7.3806 16.4998 7.54356C16.5039 7.73128 16.4918 7.919 16.4637 8.10466C16.4293 8.29504 16.367 8.47931 16.2789 8.65153C16.1793 8.81214 16.0433 8.94704 15.8818 9.04528C15.747 9.13279 15.5871 9.17353 15.4268 9.16122M20.9798 4.87919H18.322V10.1292H19.4464V8.04669H20.8682V7.07106H19.4464V5.85481H20.9776V4.87919" fill="white"/>
</g>
<defs>
<filter id="filter0_d_0_503" x="-2" y="0" width="43" height="43" filterUnits="userSpaceOnUse" color-interpolation-filters="sRGB">
<feFlood flood-opacity="0" result="BackgroundImageFix"/>
<feColorMatrix in="SourceAlpha" type="matrix" values="0 0 0 0 0 0 0 0 0 0 0 0 0 0 0 0 0 0 127 0" result="hardAlpha"/>
<feOffset dy="4"/>
<feGaussianBlur stdDeviation="2"/>
<feComposite in2="hardAlpha" operator="out"/>
<feColorMatrix type="matrix" values="0 0 0 0 0 0 0 0 0 0 0 0 0 0 0 0 0 0 0.25 0"/>
<feBlend mode="normal" in2="BackgroundImageFix" result="effect1_dropShadow_0_503"/>
<feBlend mode="normal" in="SourceGraphic" in2="effect1_dropShadow_0_503" result="shape"/>
</filter>
</defs>
</svg>
